<svg width="632" height="167" viewBox="0 0 632 167" fill="none" xmlns="http://www.w3.org/2000/svg">
<mask id="mask0_3042_92" style="mask-type:luminance" maskUnits="userSpaceOnUse" x="-6" y="-5" width="163" height="144">
<path d="M150.5 0.773407V129.773H0.5V0.773407H150.5Z" fill="white" stroke="black"/>
<path d="M0 130.273L151 2.27341" stroke="black" stroke-width="17"/>
<path d="M0 130.273L151 78.2734" stroke="black" stroke-width="17"/>
</mask>
<g mask="url(#mask0_3042_92)">
<path d="M149.562 129.773H0.865234L75.2139 1L149.562 129.773Z" fill="white" stroke="white"/>
</g>
<mask id="path-5-inside-1_3042_92" fill="white">
<path d="M161 130.547V25.8593H189.516V44.121H190.102C191.664 37.6757 194.496 32.6627 198.598 29.082C202.7 25.5012 207.81 23.7109 213.93 23.7109C215.493 23.7109 216.99 23.8085 218.422 24.0038C219.855 24.1991 221.091 24.4596 222.133 24.7851V49.8827C220.961 49.427 219.464 49.0689 217.641 48.8085C215.818 48.483 213.865 48.3202 211.782 48.3202C207.094 48.3202 203.09 49.2317 199.77 51.0546C196.45 52.8775 193.911 55.5468 192.153 59.0624C190.395 62.5778 189.516 66.8748 189.516 71.9528V130.547H161ZM279.457 166.875C269.887 166.875 261.521 165.54 254.36 162.871C247.263 160.267 241.599 156.719 237.368 152.227C233.201 147.735 230.662 142.689 229.75 137.09L229.653 136.211H257.387L257.68 136.895C258.852 139.434 261.293 141.68 265.004 143.633C268.715 145.586 273.533 146.563 279.457 146.563C286.814 146.563 292.413 144.805 296.254 141.289C300.095 137.774 302.016 133.086 302.016 127.227V111.211H301.43C299.607 114.857 297.133 118.014 294.008 120.684C290.883 123.353 287.205 125.436 282.973 126.934C278.806 128.366 274.184 129.082 269.106 129.082C260.382 129.082 252.83 126.999 246.45 122.832C240.134 118.665 235.252 112.708 231.801 104.961C228.416 97.1488 226.723 87.8388 226.723 77.0308V76.9338C226.723 65.8008 228.448 56.2629 231.899 48.3202C235.414 40.3775 240.362 34.2903 246.743 30.0585C253.123 25.8267 260.74 23.7109 269.594 23.7109C274.542 23.7109 279.067 24.5247 283.168 26.1523C287.27 27.7799 290.851 30.0911 293.911 33.0859C297.035 36.0807 299.542 39.6288 301.43 43.7304H302.016V25.8593H330.532V127.617C330.532 135.365 328.448 142.168 324.282 148.027C320.18 153.952 314.288 158.574 306.606 161.895C298.989 165.215 289.939 166.875 279.457 166.875ZM278.969 108.184C283.657 108.184 287.726 106.947 291.176 104.473C294.627 101.999 297.296 98.4828 299.184 93.9258C301.137 89.3688 302.114 83.9648 302.114 77.7148V77.6168C302.114 71.3668 301.137 65.9958 299.184 61.5038C297.296 56.9465 294.594 53.4635 291.078 51.0546C287.628 48.5807 283.591 47.3437 278.969 47.3437C274.282 47.3437 270.18 48.5807 266.664 51.0546C263.149 53.4635 260.447 56.914 258.559 61.4058C256.671 65.8988 255.727 71.3018 255.727 77.6168V77.7148C255.727 83.9648 256.671 89.3688 258.559 93.9258C260.447 98.4828 263.149 101.999 266.664 104.473C270.18 106.947 274.282 108.184 278.969 108.184ZM396.938 132.695C386.261 132.695 377.081 130.514 369.399 126.152C361.716 121.725 355.792 115.443 351.625 107.305C347.524 99.1668 345.473 89.5308 345.473 78.3988V78.3008C345.473 67.1678 347.524 57.5325 351.625 49.3945C355.792 41.1913 361.619 34.8762 369.106 30.4491C376.658 25.957 385.545 23.7109 395.766 23.7109C405.987 23.7109 414.809 25.8919 422.231 30.2538C429.718 34.5507 435.48 40.6379 439.516 48.5156C443.618 56.3932 445.668 65.6058 445.668 76.1518V84.9418H359.438V66.9728H432.192L418.618 83.7698V72.8318C418.618 66.7118 417.674 61.6018 415.785 57.4999C413.897 53.3333 411.261 50.2083 407.875 48.1249C404.555 46.0416 400.681 44.9999 396.254 44.9999C391.827 44.9999 387.888 46.0741 384.438 48.2226C381.052 50.371 378.383 53.5286 376.43 57.6952C374.542 61.7968 373.598 66.8428 373.598 72.8318V83.8668C373.598 89.6618 374.542 94.6088 376.43 98.7108C378.383 102.813 381.15 105.97 384.731 108.184C388.312 110.332 392.576 111.406 397.524 111.406C401.43 111.406 404.815 110.788 407.68 109.551C410.545 108.314 412.888 106.751 414.711 104.863C416.534 102.975 417.771 101.055 418.422 99.1018L418.618 98.5158H444.789L444.496 99.5898C443.715 103.431 442.185 107.305 439.907 111.211C437.628 115.117 434.535 118.698 430.629 121.953C426.788 125.208 422.068 127.813 416.469 129.766C410.935 131.719 404.425 132.695 396.938 132.695ZM460.414 130.547V25.8593H488.93V43.0468H489.516C492.25 37.0572 496.287 32.3372 501.625 28.8866C506.964 25.4361 513.572 23.7109 521.45 23.7109C532.973 23.7109 541.86 27.1939 548.11 34.1601C554.425 41.0611 557.582 50.664 557.582 62.9688V130.547H529.067V68.8278C529.067 61.9918 527.439 56.7187 524.184 53.0077C520.994 49.2317 516.209 47.3437 509.828 47.3437C505.597 47.3437 501.918 48.3202 498.793 50.2734C495.668 52.1614 493.227 54.8307 491.469 58.2812C489.776 61.7318 488.93 65.7678 488.93 70.3908V130.547H460.414ZM617.25 132.695C605.662 132.695 597.068 130.254 591.469 125.371C585.87 120.488 583.071 112.448 583.071 101.25V47.3437H568.52V25.8593H583.071V0.273407H611.879V25.8593H631.02V47.3437H611.879V98.1248C611.879 103.008 612.953 106.426 615.102 108.379C617.315 110.267 620.571 111.211 624.868 111.211C626.17 111.211 627.309 111.179 628.285 111.113C629.262 110.983 630.174 110.853 631.02 110.723V131.621C629.457 131.882 627.504 132.109 625.161 132.305C622.882 132.565 620.245 132.695 617.25 132.695Z"/>
</mask>
<path d="M161 130.547V25.8593H189.516V44.121H190.102C191.664 37.6757 194.496 32.6627 198.598 29.082C202.7 25.5012 207.81 23.7109 213.93 23.7109C215.493 23.7109 216.99 23.8085 218.422 24.0038C219.855 24.1991 221.091 24.4596 222.133 24.7851V49.8827C220.961 49.427 219.464 49.0689 217.641 48.8085C215.818 48.483 213.865 48.3202 211.782 48.3202C207.094 48.3202 203.09 49.2317 199.77 51.0546C196.45 52.8775 193.911 55.5468 192.153 59.0624C190.395 62.5778 189.516 66.8748 189.516 71.9528V130.547H161ZM279.457 166.875C269.887 166.875 261.521 165.54 254.36 162.871C247.263 160.267 241.599 156.719 237.368 152.227C233.201 147.735 230.662 142.689 229.75 137.09L229.653 136.211H257.387L257.68 136.895C258.852 139.434 261.293 141.68 265.004 143.633C268.715 145.586 273.533 146.563 279.457 146.563C286.814 146.563 292.413 144.805 296.254 141.289C300.095 137.774 302.016 133.086 302.016 127.227V111.211H301.43C299.607 114.857 297.133 118.014 294.008 120.684C290.883 123.353 287.205 125.436 282.973 126.934C278.806 128.366 274.184 129.082 269.106 129.082C260.382 129.082 252.83 126.999 246.45 122.832C240.134 118.665 235.252 112.708 231.801 104.961C228.416 97.1488 226.723 87.8388 226.723 77.0308V76.9338C226.723 65.8008 228.448 56.2629 231.899 48.3202C235.414 40.3775 240.362 34.2903 246.743 30.0585C253.123 25.8267 260.74 23.7109 269.594 23.7109C274.542 23.7109 279.067 24.5247 283.168 26.1523C287.27 27.7799 290.851 30.0911 293.911 33.0859C297.035 36.0807 299.542 39.6288 301.43 43.7304H302.016V25.8593H330.532V127.617C330.532 135.365 328.448 142.168 324.282 148.027C320.18 153.952 314.288 158.574 306.606 161.895C298.989 165.215 289.939 166.875 279.457 166.875ZM278.969 108.184C283.657 108.184 287.726 106.947 291.176 104.473C294.627 101.999 297.296 98.4828 299.184 93.9258C301.137 89.3688 302.114 83.9648 302.114 77.7148V77.6168C302.114 71.3668 301.137 65.9958 299.184 61.5038C297.296 56.9465 294.594 53.4635 291.078 51.0546C287.628 48.5807 283.591 47.3437 278.969 47.3437C274.282 47.3437 270.18 48.5807 266.664 51.0546C263.149 53.4635 260.447 56.914 258.559 61.4058C256.671 65.8988 255.727 71.3018 255.727 77.6168V77.7148C255.727 83.9648 256.671 89.3688 258.559 93.9258C260.447 98.4828 263.149 101.999 266.664 104.473C270.18 106.947 274.282 108.184 278.969 108.184ZM396.938 132.695C386.261 132.695 377.081 130.514 369.399 126.152C361.716 121.725 355.792 115.443 351.625 107.305C347.524 99.1668 345.473 89.5308 345.473 78.3988V78.3008C345.473 67.1678 347.524 57.5325 351.625 49.3945C355.792 41.1913 361.619 34.8762 369.106 30.4491C376.658 25.957 385.545 23.7109 395.766 23.7109C405.987 23.7109 414.809 25.8919 422.231 30.2538C429.718 34.5507 435.48 40.6379 439.516 48.5156C443.618 56.3932 445.668 65.6058 445.668 76.1518V84.9418H359.438V66.9728H432.192L418.618 83.7698V72.8318C418.618 66.7118 417.674 61.6018 415.785 57.4999C413.897 53.3333 411.261 50.2083 407.875 48.1249C404.555 46.0416 400.681 44.9999 396.254 44.9999C391.827 44.9999 387.888 46.0741 384.438 48.2226C381.052 50.371 378.383 53.5286 376.43 57.6952C374.542 61.7968 373.598 66.8428 373.598 72.8318V83.8668C373.598 89.6618 374.542 94.6088 376.43 98.7108C378.383 102.813 381.15 105.97 384.731 108.184C388.312 110.332 392.576 111.406 397.524 111.406C401.43 111.406 404.815 110.788 407.68 109.551C410.545 108.314 412.888 106.751 414.711 104.863C416.534 102.975 417.771 101.055 418.422 99.1018L418.618 98.5158H444.789L444.496 99.5898C443.715 103.431 442.185 107.305 439.907 111.211C437.628 115.117 434.535 118.698 430.629 121.953C426.788 125.208 422.068 127.813 416.469 129.766C410.935 131.719 404.425 132.695 396.938 132.695ZM460.414 130.547V25.8593H488.93V43.0468H489.516C492.25 37.0572 496.287 32.3372 501.625 28.8866C506.964 25.4361 513.572 23.7109 521.45 23.7109C532.973 23.7109 541.86 27.1939 548.11 34.1601C554.425 41.0611 557.582 50.664 557.582 62.9688V130.547H529.067V68.8278C529.067 61.9918 527.439 56.7187 524.184 53.0077C520.994 49.2317 516.209 47.3437 509.828 47.3437C505.597 47.3437 501.918 48.3202 498.793 50.2734C495.668 52.1614 493.227 54.8307 491.469 58.2812C489.776 61.7318 488.93 65.7678 488.93 70.3908V130.547H460.414ZM617.25 132.695C605.662 132.695 597.068 130.254 591.469 125.371C585.87 120.488 583.071 112.448 583.071 101.25V47.3437H568.52V25.8593H583.071V0.273407H611.879V25.8593H631.02V47.3437H611.879V98.1248C611.879 103.008 612.953 106.426 615.102 108.379C617.315 110.267 620.571 111.211 624.868 111.211C626.17 111.211 627.309 111.179 628.285 111.113C629.262 110.983 630.174 110.853 631.02 110.723V131.621C629.457 131.882 627.504 132.109 625.161 132.305C622.882 132.565 620.245 132.695 617.25 132.695Z" fill="white" stroke="white" stroke-width="2" mask="url(#path-5-inside-1_3042_92)"/>
</svg>
